<?xml version="1.0" standalone="no"?><!DOCTYPE svg PUBLIC "-//W3C//DTD SVG 1.1//EN" "http://www.w3.org/Graphics/SVG/1.1/DTD/svg11.dtd"><svg t="1699370425445" class="icon" viewBox="0 0 1024 1024" version="1.1" xmlns="http://www.w3.org/2000/svg" p-id="6296" xmlns:xlink="http://www.w3.org/1999/xlink" width="200" height="200"><path d="M496.128 704.3072l86.6304 50.2784c-0.9216-0.512-2.2528-0.512-3.6864 0.4096l-86.6304-50.2784c1.4336-0.9216 2.7648-0.9216 3.6864-0.4096z" fill="#00B700" p-id="6297"></path><path d="M537.088 812.4416l-6.4512-21.8112-86.6304-50.2784 6.4512 21.8112c0.512 1.7408 1.4336 2.8672 2.6624 3.584l86.6304 50.2784c-1.2288-0.7168-2.1504-1.9456-2.6624-3.584z" fill="#009300" p-id="6298"></path><path d="M535.6544 780.0832l-86.6304-50.3808 43.4176-24.9856 86.6304 50.2784z" fill="#00B700" p-id="6299"></path><path d="M579.072 754.9952c3.4816-1.9456 5.9392 0.4096 5.0176 4.7104l-6.2464 29.184c-1.2288 5.8368-5.3248 11.776-9.9328 14.4384l-20.6848 11.9808c-4.608 2.6624-8.704 1.536-10.0352-2.8672l-6.4512-21.8112c-0.9216-3.2768 1.536-8.4992 5.0176-10.4448l43.3152-25.1904z" fill="#00DB00" p-id="6300"></path><path d="M530.7392 790.528l-86.6304-50.2784c-0.9216-3.2768 1.536-8.4992 5.0176-10.4448l86.6304 50.2784c-3.584 1.9456-6.0416 7.168-5.0176 10.4448z" fill="#00B700" p-id="6301"></path><path d="M579.072 758.0672c-0.512 0-1.024-0.1024-1.536-0.4096l-86.6304-50.2784c-0.9216-0.512-1.536-1.536-1.536-2.6624s0.6144-2.1504 1.536-2.6624c2.3552-1.3312 4.8128-1.4336 6.7584-0.4096l86.6304 50.3808c1.4336 0.8192 1.9456 2.7648 1.1264 4.1984-0.8192 1.4336-2.6624 1.9456-4.096 1.2288-0.1024 0-0.3072 0.1024-0.7168 0.3072-0.512 0.2048-1.024 0.3072-1.536 0.3072zM539.7504 819.0976c-0.512 0-1.024-0.1024-1.536-0.4096L451.584 768.3072c-1.9456-1.1264-3.2768-2.9696-3.9936-5.4272l-6.4512-21.8112c-0.3072-1.2288 0.1024-2.4576 1.024-3.2768 1.024-0.8192 2.3552-0.9216 3.4816-0.2048l86.6304 50.2784c0.7168 0.4096 1.2288 1.024 1.4336 1.7408l6.4512 21.8112c0.2048 0.6144 0.512 1.4336 1.2288 1.8432 1.4336 0.8192 1.9456 2.7648 1.1264 4.1984-0.7168 1.024-1.7408 1.6384-2.7648 1.6384z m-90.5216-72.3968l4.1984 14.4384c0.2048 0.6144 0.512 1.4336 1.2288 1.8432l78.0288 45.3632-4.608-15.7696-78.848-45.8752z" fill="#004B00" p-id="6302"></path><path d="M535.6544 783.1552c-0.512 0-1.024-0.1024-1.536-0.4096L447.488 732.3648c-0.9216-0.512-1.536-1.536-1.536-2.6624s0.6144-2.1504 1.536-2.6624l43.4176-25.088c0.9216-0.512 2.1504-0.512 3.072 0l86.6304 50.2784c0.9216 0.512 1.536 1.536 1.536 2.6624s-0.6144 2.1504-1.536 2.6624l-43.4176 25.088c-0.4096 0.3072-1.024 0.512-1.536 0.512z m-80.4864-53.4528l80.4864 46.7968 37.2736-21.504-80.4864-46.7968-37.2736 21.504z" fill="#004B00" p-id="6303"></path><path d="M542.5152 819.8144c-3.9936 0-7.0656-2.4576-8.2944-6.5536l-6.4512-21.8112c-1.3312-4.608 1.6384-11.264 6.3488-14.0288l43.4176-25.088c3.072-1.8432 6.4512-1.3312 8.2944 1.024 1.4336 1.7408 1.8432 4.1984 1.2288 7.0656l-6.2464 29.184c-1.4336 6.7584-6.0416 13.312-11.4688 16.4864l-20.6848 11.9808c-2.048 1.1264-4.1984 1.7408-6.144 1.7408z m38.6048-62.3616c-0.1024 0-0.3072 0.1024-0.512 0.2048l-43.4176 25.088c-2.3552 1.3312-4.096 5.2224-3.584 6.9632l6.4512 21.8112c0.512 1.8432 1.6384 2.1504 2.3552 2.1504 0.9216 0 1.9456-0.3072 3.1744-1.024l20.6848-11.9808c3.8912-2.2528 7.4752-7.4752 8.4992-12.3904l6.2464-29.184c0.2048-0.8192 0.2048-1.4336 0.1024-1.6384z" fill="#004B00" p-id="6304"></path><path d="M530.7392 793.6c-0.512 0-1.024-0.1024-1.536-0.4096l-86.6304-50.2784c-0.7168-0.4096-1.2288-1.024-1.4336-1.7408-1.3312-4.608 1.6384-11.264 6.3488-14.0288 0.9216-0.512 2.1504-0.512 3.072 0l86.6304 50.3808c0.9216 0.512 1.536 1.536 1.536 2.6624s-0.6144 2.1504-1.536 2.6624c-2.2528 1.3312-3.9936 4.9152-3.584 6.7584 0.1024 0.3072 0.2048 0.7168 0.2048 1.1264 0 1.536-1.4336 2.8672-3.072 2.8672z m-83.7632-55.296l80.9984 47.104c0.512-1.7408 1.4336-3.3792 2.56-4.8128l-81.2032-47.2064c-1.3312 1.4336-2.2528 3.4816-2.3552 4.9152z" fill="#004B00" p-id="6305"></path><path d="M556.4416 289.0752c16.0768-9.3184 34.6112 7.68 38.4 22.8352 23.2448 101.4784-7.3728 223.1296-27.8528 347.0336-0.8192 5.3248-5.0176 11.4688-9.5232 14.0288s-8.704 1.3312-9.5232-3.072c-21.0944-99.84-52.3264-185.856-29.696-313.7536 3.6864-19.5584 22.1184-57.856 38.1952-67.072z" fill="#FFFFFF" p-id="6306"></path><path d="M523.9808 314.368c1.6384-0.9216 2.3552 0.512 1.3312 2.1504-14.848 23.7568-57.5488 103.7312-51.8144 176.0256 8.0896 102.1952 49.4592 152.9856 61.3376 178.4832 0.512 1.024-0.4096 2.56-1.3312 3.1744-0.4096 0.2048-0.8192 0.3072-1.1264 0-16.896-12.9024-64.4096-54.3744-82.1248-126.3616-21.0944-85.504 15.5648-184.9344 73.728-233.472z" fill="#FFFFFF" p-id="6307"></path><path d="M632.0128 259.7888c55.7056 9.728 76.8 79.6672 49.7664 165.0688l-69.9392 191.8976c-10.752 29.5936-31.8464 56.4224-54.8864 69.632-23.04 13.312-44.1344 10.9568-55.0912-6.144L432.128 571.2896c-27.8528-54.6816-6.144-150.6304 50.8928-224.768l3.1744-4.1984c21.9136-28.5696 46.8992-50.8928 71.7824-65.2288 25.8048-14.848 51.6096-21.2992 74.0352-17.3056z m-74.5472 413.0816c4.5056-2.6624 8.704-8.8064 9.5232-14.0288 20.48-123.904 51.0976-245.4528 27.8528-347.0336-3.7888-15.1552-22.3232-32.0512-38.4-22.8352-16.0768 9.3184-34.4064 47.5136-38.1952 67.072-22.6304 128 8.6016 213.9136 29.696 313.7536 0.8192 4.4032 5.0176 5.7344 9.5232 3.072m-24.064 1.3312c0.9216-0.512 1.8432-2.1504 1.3312-3.1744-11.9808-25.4976-53.248-76.288-61.3376-178.4832-5.7344-72.3968 36.9664-152.2688 51.8144-176.0256 1.024-1.6384 0.3072-3.1744-0.9216-2.4576-58.5728 48.7424-95.232 148.1728-74.1376 233.7792 17.7152 71.9872 65.2288 113.5616 82.1248 126.3616 0.4096 0.2048 0.8192 0.2048 1.1264 0m132.3008-250.7776c20.48-109.568-16.5888-166.2976-74.8544-147.6608-1.6384 0.9216-2.3552 3.1744-1.3312 3.6864 14.9504 6.656 57.9584 36.9664 52.6336 115.712-7.4752 111.2064-48.4352 209.5104-60.1088 248.6272-0.4096 1.536 0.4096 2.1504 1.4336 1.536 0.4096-0.2048 0.8192-0.6144 1.1264-1.2288 16.6912-32.3584 63.7952-128.512 81.1008-220.672" fill="#00DB00" p-id="6308"></path><path d="M590.4384 275.968c58.5728-18.8416 95.744 37.9904 75.264 147.456-17.3056 92.16-64.4096 188.416-81.1008 220.672-0.3072 0.6144-0.7168 1.024-1.1264 1.2288-0.9216 0.512-1.8432 0-1.4336-1.536 11.776-39.1168 52.6336-137.4208 60.1088-248.6272 5.3248-78.7456-37.7856-109.056-52.6336-115.712-1.024-0.512-0.3072-2.7648 0.9216-3.4816z" fill="#FFFFFF" p-id="6309"></path><path d="M567.6032 217.3952c-6.656-3.8912-14.0288-6.5536-22.1184-7.9872-22.528-3.8912-48.3328 2.4576-74.0352 17.408-24.8832 14.4384-49.8688 36.6592-71.7824 65.2288l-3.1744 4.1984c-56.9344 74.1376-78.6432 169.984-50.8928 224.768l69.8368 108.9536c2.8672 4.5056 6.5536 7.9872 10.752 10.4448l86.6304 50.2784c-4.1984-2.4576-7.7824-5.9392-10.752-10.4448L432.128 571.2896c-27.8528-54.6816-6.144-150.6304 50.8928-224.768l3.1744-4.1984c21.9136-28.5696 46.8992-50.8928 71.7824-65.2288 25.8048-14.848 51.6096-21.2992 74.0352-17.408 8.0896 1.4336 15.5648 4.096 22.1184 7.9872l-86.528-50.2784z" fill="#009300" p-id="6310"></path><path d="M529.1008 698.0608c-12.4928 0-23.04-5.7344-29.696-16.0768l-69.8368-108.9536c-0.1024-0.1024-0.1024-0.2048-0.1024-0.3072-13.7216-27.136-16.0768-65.1264-6.656-107.1104 9.4208-41.7792 30.0032-84.6848 57.7536-120.832l3.1744-4.1984c21.7088-28.2624 46.8992-51.0976 72.704-66.048 21.4016-12.3904 42.9056-18.944 62.1568-18.944 4.7104 0 9.4208 0.4096 13.9264 1.2288 20.48 3.584 37.1712 15.1552 48.4352 33.5872 19.456 32.0512 20.8896 81.408 3.7888 135.3728v0.1024l-69.9392 191.8976c-11.0592 30.3104-32.5632 57.6512-56.2176 71.2704-10.1376 5.8368-20.3776 9.0112-29.4912 9.0112z m-94.3104-128.3072l69.7344 108.8512c5.5296 8.704 14.0288 13.2096 24.4736 13.2096 8.0896 0 17.3056-2.7648 26.5216-8.0896 22.4256-13.0048 43.008-39.0144 53.5552-68.096L678.912 423.7312c16.4864-52.224 15.36-99.7376-3.2768-130.2528-10.24-16.896-25.4976-27.4432-44.2368-30.72-4.096-0.7168-8.4992-1.1264-12.9024-1.1264-18.2272 0-38.6048 6.2464-59.0848 18.1248-25.088 14.5408-49.5616 36.7616-70.8608 64.4096l-3.1744 4.1984C458.1376 384 438.0672 425.984 428.7488 466.944c-9.1136 40.448-6.9632 77.0048 6.0416 102.8096z m97.9968 107.7248c-0.8192 0-1.6384-0.3072-2.3552-0.8192-19.1488-14.5408-65.536-56.2176-83.2512-128.1024-10.1376-40.96-7.4752-87.9616 7.2704-132.3008 14.2336-42.7008 38.2976-79.872 67.8912-104.448 0.1024-0.1024 0.3072-0.2048 0.4096-0.3072 0.7168-0.4096 1.4336-0.6144 2.1504-0.6144 1.4336 0 2.6624 0.7168 3.3792 1.9456 0.8192 1.536 0.7168 3.4816-0.4096 5.3248-5.9392 9.5232-57.6512 95.0272-51.4048 174.1824 6.5536 82.1248 34.6112 130.7648 51.4048 159.744 3.9936 6.8608 7.3728 12.6976 9.6256 17.7152 1.2288 2.56-0.4096 5.8368-2.6624 7.0656-0.512 0.4096-1.2288 0.6144-2.048 0.6144z m-16.1792-352.256c-24.2688 23.552-44.032 56.1152-56.2176 92.8768-14.4384 43.3152-16.9984 89.088-7.168 128.9216 16.0768 65.3312 56.5248 105.0624 77.0048 121.5488-2.048-3.8912-4.7104-8.4992-7.5776-13.5168-17.1008-29.4912-45.568-78.848-52.224-162.304-2.4576-31.5392 3.6864-67.7888 18.432-107.52 9.6256-26.3168 20.6848-47.5136 27.7504-60.0064z m36.4544 352.0512c-4.096 0-7.2704-2.6624-8.0896-6.8608-3.6864-17.3056-7.68-34.4064-11.5712-50.8928-19.0464-80.9984-36.9664-157.5936-18.1248-263.9872 3.8912-20.48 22.6304-59.392 39.6288-69.12 3.4816-2.048 7.2704-3.072 11.264-3.072 14.7456 0 28.3648 14.336 31.6416 27.7504 19.3536 84.5824 1.9456 181.4528-16.4864 284.0576-3.7888 20.992-7.68 42.7008-11.264 64.2048-0.9216 6.144-5.7344 13.1072-11.0592 16.1792-1.9456 1.2288-3.9936 1.7408-5.9392 1.7408z m13.1072-387.7888c-2.8672 0-5.632 0.7168-8.192 2.2528-6.656 3.8912-14.9504 14.2336-22.528 28.4672-6.7584 12.5952-12.288 26.9312-14.1312 36.4544-18.5344 105.0624-0.7168 181.0432 18.1248 261.5296 3.8912 16.5888 7.8848 33.792 11.5712 51.0976 0.3072 1.7408 1.3312 1.9456 2.048 1.9456 0.6144 0 1.6384-0.2048 2.9696-0.9216 3.7888-2.1504 7.3728-7.4752 7.9872-11.8784 3.584-21.6064 7.4752-43.3152 11.264-64.3072 18.3296-101.9904 35.7376-198.2464 16.5888-281.4976-2.7648-10.9568-14.336-23.1424-25.7024-23.1424z m16.5888 359.1168c-1.2288 0-2.3552-0.512-3.072-1.536-0.512-0.6144-1.2288-2.048-0.512-4.1984 2.2528-7.4752 5.632-17.2032 9.4208-28.4672 16.6912-48.5376 44.544-129.7408 50.5856-219.4432 2.2528-33.1776-3.8912-61.1328-18.2272-83.0464-10.3424-15.872-23.6544-25.7024-32.5632-29.696-1.4336-0.6144-2.2528-1.9456-2.3552-3.4816-0.1024-2.1504 1.3312-4.5056 3.3792-5.632 0.2048-0.1024 0.3072-0.2048 0.512-0.2048 7.5776-2.4576 14.9504-3.6864 21.9136-3.6864 16.2816 0 30.5152 6.7584 41.0624 19.5584 21.7088 26.112 27.3408 74.1376 15.872 135.2704-17.1008 91.2384-62.6688 185.344-81.408 221.4912-0.6144 1.1264-1.3312 1.9456-2.2528 2.4576-0.8192 0.4096-1.6384 0.6144-2.3552 0.6144z m10.9568-370.4832c6.7584 3.584 20.48 12.3904 32.256 30.5152 15.0528 23.04 21.6064 52.224 19.2512 86.7328-6.144 90.5216-34.0992 172.2368-50.8928 221.0816-0.512 1.3312-0.9216 2.6624-1.3312 3.9936 21.7088-44.4416 55.5008-122.0608 69.632-197.5296 10.9568-58.4704 5.632-105.8816-14.5408-130.2528-9.5232-11.4688-21.8112-17.3056-36.352-17.3056-5.632 0-11.6736 0.9216-18.0224 2.7648z" fill="#004B00" p-id="6311"></path><path d="M512.7168 693.8624c-0.512 0-1.024-0.1024-1.536-0.4096L424.5504 643.072c-4.7104-2.7648-8.6016-6.5536-11.776-11.4688l-69.8368-108.9536c-0.1024-0.1024-0.1024-0.2048-0.1024-0.3072-13.7216-27.136-16.0768-65.1264-6.656-107.1104 9.4208-41.7792 30.0032-84.6848 57.7536-120.832l3.1744-4.1984c21.7088-28.2624 46.8992-51.0976 72.704-66.048 21.4016-12.3904 42.9056-18.944 62.1568-18.944 4.7104 0 9.4208 0.4096 13.9264 1.1264 8.3968 1.4336 16.1792 4.3008 23.1424 8.2944l86.528 50.2784h0.1024c1.4336 0.8192 1.9456 2.7648 1.1264 4.1984-0.8192 1.4336-2.7648 1.9456-4.1984 1.1264-6.3488-3.6864-13.5168-6.2464-21.0944-7.5776-4.096-0.7168-8.4992-1.1264-12.9024-1.1264-18.2272 0-38.6048 6.2464-59.0848 18.1248-25.088 14.5408-49.5616 36.7616-70.8608 64.4096l-3.1744 4.1984C458.1376 384 438.0672 425.984 428.7488 466.944c-9.216 40.5504-7.0656 77.1072 6.0416 102.912l69.7344 108.8512c2.56 3.9936 5.7344 7.168 9.5232 9.3184 1.024 0.512 1.7408 1.536 1.7408 2.7648 0 1.6384-1.3312 2.9696-3.072 3.072zM348.2624 519.4752l69.7344 108.8512c2.56 4.096 5.8368 7.2704 9.6256 9.4208l69.2224 40.2432-67.2768-105.0624c-0.1024-0.1024-0.1024-0.2048-0.1024-0.3072-13.7216-27.136-16.0768-65.1264-6.656-107.1104 9.4208-41.7792 30.0032-84.6848 57.7536-120.832l3.1744-4.1984c21.7088-28.2624 46.8992-51.0976 72.704-66.048 21.4016-12.3904 42.9056-18.944 62.1568-18.944 3.1744 0 6.3488 0.2048 9.4208 0.512l-62.0544-36.0448c-6.3488-3.6864-13.5168-6.2464-21.0944-7.5776-4.096-0.7168-8.4992-1.1264-12.9024-1.1264-18.2272 0-38.6048 6.2464-59.0848 18.1248-25.088 14.5408-49.5616 36.7616-70.8608 64.4096l-3.1744 4.1984c-27.2384 35.5328-47.4112 77.6192-56.6272 118.4768-9.216 40.6528-7.0656 77.2096 6.0416 103.0144z" fill="#004B00" p-id="6312"></path></svg>