<?xml version="1.0" standalone="no"?><!DOCTYPE svg PUBLIC "-//W3C//DTD SVG 1.1//EN" "http://www.w3.org/Graphics/SVG/1.1/DTD/svg11.dtd"><svg t="1699370533168" class="icon" viewBox="0 0 1024 1024" version="1.1" xmlns="http://www.w3.org/2000/svg" p-id="8309" xmlns:xlink="http://www.w3.org/1999/xlink" width="200" height="200"><path d="M512 512m-512 0a512 512 0 1 0 1024 0 512 512 0 1 0-1024 0Z" fill="#262626" p-id="8310"></path><path d="M260.491228 700.631579V314.385965h143.719298c74.410667 0 134.736842 60.326175 134.736842 134.736842 0 74.410667-60.326175 134.736842-134.736842 134.736842h-62.877193v116.77193h-80.842105z m134.736842-188.631579h-53.894737V386.245614h53.894737a62.877193 62.877193 0 1 1 0 125.754386z" fill="#31A8FF" p-id="8311"></path><path d="M772.491228 417.684211V485.052632c-31.438596-13.473684-51.954526-17.964912-76.350877-17.964913-24.405333 0-44.912281 4.491228-44.912281 17.964913 0 13.922807 22.45614 26.947368 58.385965 40.421052 19.52786 8.129123 40.385123 19.851228 53.894737 31.438597 0 0 38.813193 35.929825 17.964912 94.315789-17.964912 50.301754-80.842105 58.385965-112.280702 58.385965-44.912281 0-94.315789-17.964912-94.315789-17.964912v-76.350877c28.447439 15.512702 57.811088 21.43214 89.824561 22.45614h0.14372c15.090526 0.485053 40.277333 1.293474 40.277333-17.964912 0-13.922807-23.372351-23.641825-49.286737-34.429755-19.52786-8.138105-40.510877-16.878035-54.011509-28.456421 0 0-44.912281-31.429614-22.45614-94.306807C595.464982 417.504561 637.754386 404.210526 691.649123 404.210526c62.877193 0 80.842105 13.473684 80.842105 13.473685z" fill="#31A8FF" p-id="8312"></path><path d="M341.333333 386.245614h53.894737a62.877193 62.877193 0 1 1 0 125.754386h-53.894737V386.245614z" fill="#262626" p-id="8313"></path></svg>