<?xml version="1.0" standalone="no"?><!DOCTYPE svg PUBLIC "-//W3C//DTD SVG 1.1//EN" "http://www.w3.org/Graphics/SVG/1.1/DTD/svg11.dtd"><svg t="1699443584812" class="icon" viewBox="0 0 1024 1024" version="1.1" xmlns="http://www.w3.org/2000/svg" p-id="7004" xmlns:xlink="http://www.w3.org/1999/xlink" width="200" height="200"><path d="M0 489.941333c0-72.576 15.829333-141.482667 44.032-203.733333L286.72 940.458667C117.034667 859.306667 0 688.085333 0 489.898667z m860.074667-32.981333c0 41.173333-16.981333 88.96-39.210667 155.562667l-51.413333 160.426666L583.296 255.573333c31.018667-1.536 58.965333-4.608 58.965333-4.608a19.925333 19.925333 0 0 0-3.285333-39.68s-83.413333 6.144-137.301333 6.144c-50.602667 0-135.68-6.101333-135.68-6.101333-27.733333-1.536-31.018667 38.101333-3.242667 39.68 0 0 26.282667 3.029333 54.058667 4.565333l80.213333 205.397334-112.768 315.861333L196.693333 255.616a1111.168 1111.168 0 0 0 58.965334-4.608 19.925333 19.925333 0 0 0-3.285334-39.68s-83.413333 6.144-137.301333 6.144c-9.642667 0-21.034667-0.213333-33.152-0.554667C174.037333 86.272 332.373333 0 512.298667 0c134.101333 0 256.213333 47.872 347.861333 126.293333-2.218667-0.085333-4.394667-0.341333-6.656-0.341333a86.016 86.016 0 0 0-86.528 85.418667c0 39.68 24.490667 73.216 50.602667 112.896 19.626667 32 42.496 73.216 42.496 132.693333z m103.381333-211.626667A478.592 478.592 0 0 1 1024 478.848c0 179.541333-98.816 336.341333-245.76 420.693333l150.954667-429.824c28.202667-69.461333 37.589333-124.970667 37.589333-174.336 0-17.92-1.194667-34.56-3.328-50.048zM528.64 531.541333l163.882667 415.061334c1.066667 2.432 2.389333 4.693333 3.797333 6.826666a571.861333 571.861333 0 0 1-177.066667 27.904c-52.309333 0-102.826667-7.082667-150.613333-20.053333l160-429.738667z" fill="#21759B" p-id="7005"></path></svg>